Subj06run_81
version=1
nRows=68
nColumns=19
inDegrees=no
endheader
time	l_ground_force_vx	l_ground_force_vy	l_ground_force_vz	l_ground_force_px	l_ground_force_py	l_ground_force_pz	ground_force_vx	ground_force_vy	ground_force_vz	ground_force_px	ground_force_py	ground_force_pz	l_ground_torque_x	l_ground_torque_y	l_ground_torque_z	ground_torque_x	ground_torque_y	ground_torque_z	
0	79.1700740555474	794.773346931403	60.5500747036682	-0.0306410934847716	0	-0.0362055082560171	17.2415663610182	236.408941718101	-22.8533221200564	0.00812920719991049	0	0.00213936036697241	0	-0.797725621404342	0	0	0.752038486259592	0
0.01	80.9263679416536	678.110904065212	56.7805975743392	-0.0449595986165318	0	-0.0364263139170947	28.7488704337832	210.606210763835	-24.9132513119811	-0.0176032719181763	0	4.13211538430682e-05	0	-0.727825266848698	0	0	-0.0193076292857087	0
0.02	76.0144225886159	558.999786576915	52.3592383788425	-0.0572007548621368	0	-0.0370092122009742	37.9301577265146	177.371275453998	-25.8507914965866	-0.0524390497702438	0	-0.00571334087628266	0	0.116108548520763	0	0	-0.414416528107448	0
0.03	66.3158247169857	442.375013427732	47.4857737035639	-0.0691177005910115	0	-0.0372560244437722	44.3159525193779	140.211714303392	-25.7468807799652	-0.0959767395611755	0	-0.0155629178771004	0	1.45092689166811	0	0	-0.189858751330013	0
0.04	54.0990827274383	333.791369913489	42.3812055826097	-0.0843141143136858	0	-0.0358127140725946	47.6519701644583	103.22266137567	-24.6607717789241	-0.143957865759067	0	-0.0300292742771694	0	2.78989779208566	0	0	0.54789648827978	0
0.05	42.3932323753449	238.40724150408	36.8420670490357	-0.107738177734189	0	-0.030457334183802	47.2561439826838	70.5529500553423	-22.7801138050319	-0.182614412768232	0	-0.0484388910355452	0	3.49838137621806	0	0	1.625590571481	0
0.06	33.8655030072156	160.080481677887	30.8491610814594	-0.145081729145764	0	-0.0178726457615922	42.4576336686086	44.8090959547548	-20.1523723070894	-0.18012699437029	0	-0.0679633547476503	0	3.2170943018634	0	0	2.58388809786334	0
0.07	29.385302053654	100.249897667506	24.775084616421	-0.204554213856577	0	0.00643090519407039	34.0439464204594	26.4305201999992	-16.7793478600079	-0.0738386415962495	0	-0.0822361162186585	0	1.99839181844511	0	0	3.06953194239937	0
0.08	28.0911935716506	57.7802347273073	19.0299951823035	-0.296926262423475	0	0.0486827883356092	0	0	0	0	0	0	0	0.197395101351904	0	0	0	0
0.09	27.0119898393445	30.1593267241254	14.4847611240625	-0.422631375559518	0	0.117784409790867	0	0	0	0	0	0	0	-1.49463160723371	0	0	0	0
0.1	0	0	0	0	0	0	0	0	0	0	0	0	0	0	0	0	0	0
0.11	0	0	0	0	0	0	0	0	0	0	0	0	0	0	0	0	0	0
0.12	0	0	0	0	0	0	0	0	0	0	0	0	0	0	0	0	0	0
0.13	0	0	0	0	0	0	0	0	0	0	0	0	0	0	0	0	0	0
0.14	0	0	0	0	0	0	0	0	0	0	0	0	0	0	0	0	0	0
0.15	0	0	0	0	0	0	0	0	0	0	0	0	0	0	0	0	0	0
0.16	0	0	0	0	0	0	0	0	0	0	0	0	0	0	0	0	0	0
0.17	0	0	0	0	0	0	0	0	0	0	0	0	0	0	0	0	0	0
0.18	0	0	0	0	0	0	0	0	0	0	0	0	0	0	0	0	0	0
0.19	0	0	0	0	0	0	0	0	0	0	0	0	0	0	0	0	0	0
0.2	0	0	0	0	0	0	0	0	0	0	0	0	0	0	0	0	0	0
0.21	0	0	0	0	0	0	-7.21595495897564	49.8606759119303	-12.5130081341872	0.202572763283319	0	0.0845784990816908	0	0	0	0	0.148545913640957	0
0.22	0	0	0	0	0	0	-9.79180756754444	157.426040928176	-17.458136241624	0.118333808408111	0	0.0936599063507838	0	0	0	0	0.164138913016128	0
0.23	0	0	0	0	0	0	-8.88860442047735	332.306991073546	-22.4866854991232	0.103673638437352	0	0.096360830745153	0	0	0	0	0.803847154535208	0
0.24	0	0	0	0	0	0	-13.7176041090233	554.495742288467	-24.9938240934728	0.102163781233535	0	0.0974782781702996	0	0	0	0	0.730848022218209	0
0.25	0	0	0	0	0	0	-30.3002481822942	763.77522021054	-22.0770587125849	0.104529506832072	0	0.0976127019141026	0	0	0	0	-1.27132137024759	0
0.26	0	0	0	0	0	0	-57.0761384663138	921.433749455735	-18.2384282411006	0.106869547012394	0	0.0977303687843592	0	0	0	0	-4.65877409567587	0
0.27	0	0	0	0	0	0	-84.911596700332	1039.65913867962	-20.665796178499	0.106134301877613	0	0.0984254425129794	0	0	0	0	-7.73077202454924	0
0.28	0	0	0	0	0	0	-100.989209758642	1140.98617074207	-29.6060195161461	0.100712944551433	0	0.0996472519770748	0	0	0	0	-9.27023309958351	0
0.29	0	0	0	0	0	0	-102.508303375647	1236.23399544072	-42.9659795677005	0.0905581109081654	0	0.101022196279023	0	0	0	0	-8.99475904853722	0
0.3	0	0	0	0	0	0	-93.2280923260428	1319.60614895107	-55.8702406475767	0.0769749307701131	0	0.102059183954353	0	0	0	0	-7.60437544435792	0
0.31	0	0	0	0	0	0	-78.0444484902997	1380.40127184013	-65.2218887584666	0.0613131160762014	0	0.102595656173554	0	0	0	0	-5.76226454448574	0
0.32	0	0	0	0	0	0	-59.1098255256754	1410.22835468282	-70.0241210703026	0.0447587337068383	0	0.102598576245032	0	0	0	0	-3.744395523681	0
0.33	0	0	0	0	0	0	-36.749670349551	1407.44255319786	-70.8424338894492	0.028001533492295	0	0.102298985937547	0	0	0	0	-1.60665836029749	0
0.34	0	0	0	0	0	0	-10.7119246046289	1374.72427269206	-69.0619988428714	0.0113982036962247	0	0.101859001889986	0	0	0	0	0.565798452484568	0
0.35	0	0	0	0	0	0	18.8762021873596	1317.29935168246	-65.5306934216638	-0.00488460694064997	0	0.101393070075859	0	0	0	0	2.79788423162311	0
0.36	0	0	0	0	0	0	49.7813499924661	1239.89082818299	-60.442999164675	-0.0205294860677602	0	0.100887380002973	0	0	0	0	5.03218325225876	0
0.37	0	0	0	0	0	0	77.7123399969935	1144.24705666989	-53.7864049650151	-0.0353278326678993	0	0.100228154657643	0	0	0	0	7.00759312600097	0
0.38	0	0	0	0	0	0	99.4232066342911	1030.85518739708	-45.8971995103729	-0.0497316030290263	0	0.0993130641892955	0	0	0	0	8.53327756128898	0
0.39	0	0	0	0	0	0	113.952714316775	901.296257004712	-37.8385292417611	-0.0648110676220045	0	0.0980115927507103	0	0	0	0	9.57703566726006	0
0.4	0	0	0	0	0	0	121.300333836954	760.05779191252	-30.754947523754	-0.0817605958804503	0	0.0962203286478224	0	0	0	0	10.1456907439987	0
0.41	0	0	0	0	0	0	121.888391703091	614.285102419691	-25.2318864518031	-0.101681436757018	0	0.0937258126044209	0	0	0	0	10.2220973648852	0
0.42	0	0	0	0	0	0	116.885072226653	473.142772762084	-21.2228822076682	-0.125481565708329	0	0.0902699721583206	0	0	0	0	9.92923494985502	0
0.43	0	0	0	0	0	0	108.007892250536	345.98673304468	-18.3726550144225	-0.153237424829576	0	0.0854423458749367	0	0	0	0	9.5470237869679	0
0.44	0	0	0	0	0	0	96.4575844438956	239.951340029547	-16.2268297565049	-0.182113051270044	0	0.0790108887356018	0	0	0	0	9.12385353048007	0
0.45	0	0	0	0	0	0	82.8133478536136	157.9678102995	-14.4878169825518	-0.203900259022839	0	0.0712460680477105	0	0	0	0	8.52748655142645	0
0.46	0	0	0	0	0	0	67.6323200574582	98.9431178232907	-13.0484864955099	-0.203081175446779	0	0.0633599447945783	0	0	0	0	7.70870696923813	0
0.47	0	0	0	0	0	0	51.5782745940225	59.0677304064173	-11.7081787111154	-0.153903571346298	0	0.0570775605737005	0	0	0	0	6.65755202811468	0
0.48	0	0	0	0	0	0	35.3557516722535	33.5776969427394	-10.2907813825368	-0.018987002111796	0	0.0528475158467822	0	0	0	0	5.21350780476157	0
0.49	0	0	0	0	0	0	0	0	0	0	0	0	0	0	0	0	0	0
0.5	0	0	0	0	0	0	0	0	0	0	0	0	0	0	0	0	0	0
0.51	0	0	0	0	0	0	0	0	0	0	0	0	0	0	0	0	0	0
0.52	0	0	0	0	0	0	0	0	0	0	0	0	0	0	0	0	0	0
0.53	0	0	0	0	0	0	0	0	0	0	0	0	0	0	0	0	0	0
0.54	0	0	0	0	0	0	0	0	0	0	0	0	0	0	0	0	0	0
0.55	0	0	0	0	0	0	0	0	0	0	0	0	0	0	0	0	0	0
0.56	0	0	0	0	0	0	0	0	0	0	0	0	0	0	0	0	0	0
0.57	0	0	0	0	0	0	0	0	0	0	0	0	0	0	0	0	0	0
0.58	-14.1731222506243	32.3312174184884	12.9543212792021	0.0680847450509973	0	0.109923989488324	0	0	0	0	0	0	0	0.555385360802805	0	0	0	0
0.59	-13.9388982960066	130.94921901658	16.227964894415	0.142647724303546	0	-0.0119168136455655	0	0	0	0	0	0	0	-0.991085612644066	0	0	0	0
0.6	-10.5596959684385	289.135798844009	21.2812308796426	0.157181087054327	0	-0.0333679495965863	0	0	0	0	0	0	0	-2.57901616813162	0	0	0	0
0.61	-10.0120587133373	487.694102764327	27.602195760675	0.162576473926283	0	-0.040077986152995	-7.21208773968655	21.3781456886926	-8.86198134784856	0.29696241782878	0	-0.068902947555933	0	-3.53570972306297	0	0	0.736879687682368	0
0.62	-22.7558209143639	672.269251527827	33.2265586653797	0.165265689726226	0	-0.0422186668524807	-16.279659065245	33.1418628914774	-9.0128617518781	0.151239308692806	0	-0.0723858257873766	0	-2.75060460056857	0	0	0.709054292485321	0
0.63	-45.8599552410483	804.457572636843	36.9283255581057	0.166342796435579	0	-0.0424236467756339	-24.1644039663156	44.3615678529346	-9.34505392225829	0.108352598970287	0	-0.0737347534151561	0	-0.648927524146369	0	0	0.983488304652038	0
0.64	-73.3552757354097	898.732483273037	42.9219550590647	0.164483083358918	0	-0.0418232622843923	-30.4192065854943	54.6986072746045	-8.90063420653264	0.120149509039827	0	-0.067524176561295	0	1.50230085506565	0	0	1.28897641666775	0
0.65	-94.0493095923337	980.598097178949	52.2588293196468	0.158900684741044	0	-0.0410616649085128	-35.5374589988067	65.1301620186693	-6.95402074898621	0.156613964004723	0	-0.0525080512439352	0	2.55266172924268	0	0	1.28952413857194	0
0.66	-100.021470283136	1062.16534675625	62.4837813082372	0.14952489173266	0	-0.0405556717781505	-40.1186387729666	76.1749600828539	-4.70975871211086	0.19331996266819	0	-0.0339725736654217	0	2.25653294483673	0	0	0.809392626256108	0
0.67	-91.0810841689203	1143.00404248429	71.8601929343065	0.137243090834369	0	-0.040483274858267	-44.5622559690863	88.1652084613045	-2.68253228230831	0.215895357139261	0	-0.0172170697346152	0	0.880900537963959	0	0	-0.00965902996745409	0
